HIERARCHY
ROOT Hips
{
	OFFSET 0.000000 88.474243 0.000000
	CHANNELS 6 Xposition Yposition Zposition Zrotation Yrotation Xrotation 
	JOINT Hips_Spine
	{
		OFFSET 0.000000 0.000000 0.000000
		CHANNELS 3 Zrotation Yrotation Xrotation
		JOINT Spine
		{
			OFFSET 0.005100 8.711998 -0.691000
			CHANNELS 3 Zrotation Yrotation Xrotation
			JOINT Spine1
			{
				OFFSET -0.009200 8.660301 -1.275000
				CHANNELS 3 Zrotation Yrotation Xrotation
				JOINT Spine2
				{
					OFFSET 0.006300 9.852501 -1.857000
					CHANNELS 3 Zrotation Yrotation Xrotation
					JOINT Spine2_Neck
					{
						OFFSET 0.000000 0.000000 0.000000
						CHANNELS 3 Zrotation Yrotation Xrotation
						JOINT Neck
						{
							OFFSET 0.016300 11.420799 -0.263300
							CHANNELS 3 Zrotation Yrotation Xrotation
							End Site #name: Head
							{
								OFFSET -0.019200 9.262405 2.362500
							}
						}
					}
					JOINT Spine2_LeftShoulder
					{
						OFFSET 0.000000 0.000000 0.000000
						CHANNELS 3 Zrotation Yrotation Xrotation
						JOINT LeftShoulder
						{
							OFFSET 5.616900 6.732201 -0.345700
							CHANNELS 3 Zrotation Yrotation Xrotation
							JOINT LeftArm
							{
								OFFSET 10.664888 -0.183372 -2.440700
								CHANNELS 3 Zrotation Yrotation Xrotation
								JOINT LeftForeArm
								{
									OFFSET 27.459126 0.000000 0.000000
									CHANNELS 3 Zrotation Yrotation Xrotation
									End Site #name: LeftHand
									{
										OFFSET 21.306858 0.000000 0.000000
									}
								}
							}
						}
					}
					JOINT Spine2_RightShoulder
					{
						OFFSET 0.000000 0.000000 0.000000
						CHANNELS 3 Zrotation Yrotation Xrotation
						JOINT RightShoulder
						{
							OFFSET -5.580300 6.737503 -0.344400
							CHANNELS 3 Zrotation Yrotation Xrotation
							JOINT RightArm
							{
								OFFSET -10.679335 -0.188484 -2.383900
								CHANNELS 3 Zrotation Yrotation Xrotation
								JOINT RightForeArm
								{
									OFFSET -27.503529 0.000000 0.000000
									CHANNELS 3 Zrotation Yrotation Xrotation
									End Site #name: RightHand
									{
										OFFSET -21.306808 0.000000 0.000000
									}
								}
							}
						}
					}
				}
			}
		}
	}
	JOINT Hips_LeftUpLeg
	{
		OFFSET 0.000000 0.000000 0.000000
		CHANNELS 3 Zrotation Yrotation Xrotation
		JOINT LeftUpLeg
		{
			OFFSET 6.857700 -6.739601 0.312100
			CHANNELS 3 Zrotation Yrotation Xrotation
			JOINT LeftLeg
			{
				OFFSET -0.367590 -34.731552 -4.572400
				CHANNELS 3 Zrotation Yrotation Xrotation
				End Site #name: LeftFoot
				{
					OFFSET 0.367590 -34.656704 -6.067400
				}
			}
		}
	}
	JOINT Hips_RightUpLeg
	{
		OFFSET 0.000000 0.000000 0.000000
		CHANNELS 3 Zrotation Yrotation Xrotation
		JOINT RightUpLeg
		{
			OFFSET -6.876100 -6.733299 0.301000
			CHANNELS 3 Zrotation Yrotation Xrotation
			JOINT RightLeg
			{
				OFFSET 0.347353 -34.795158 -4.515900
				CHANNELS 3 Zrotation Yrotation Xrotation
				End Site #name: RightFoot
				{
					OFFSET -0.347353 -34.589367 -6.070300
				}
			}
		}
	}
}
MOTION
Frames: 14
Frame Time: 0.041667
-0.075009 0.195693 -1.544931 -3.591836 1.366307 -2.725505 0.000000 0.000000 0.000000 2.479715 0.605856 15.151234 0.489742 0.569448 2.387778 0.000000 0.000000 0.000000 0.806066 0.516180 1.652748 1.476321 -0.690827 7.548513 0.726123 0.466478 2.290635 -5.395621 -3.680509 -0.145383 -60.972411 -5.912420 7.973666 -0.642677 -68.351435 1.543434 0.653856 0.547062 2.679631 5.402684 -6.541506 0.433661 72.903491 14.646315 15.755365 0.609988 85.142591 0.691964 0.000000 0.000000 0.000000 5.180839 7.719662 -92.770271 2.769736 -3.757851 82.279300 0.000000 0.000000 0.000000 -3.536682 -10.874631 -90.809562 -2.720652 1.154057 85.752742 
-0.081389 0.200435 -1.589069 -3.579084 1.355986 -2.731152 0.000000 0.000000 0.000000 2.491599 0.607128 15.148285 0.493156 0.569481 2.397653 0.000000 0.000000 0.000000 0.813803 0.515225 1.666646 1.476623 -0.685876 7.509764 0.731386 0.465411 2.302362 -5.440326 -3.822586 -0.119034 -60.907922 -6.046980 7.811371 -0.622069 -67.841042 1.522695 0.663583 0.544181 2.703737 5.563576 -6.580645 0.422908 72.841357 14.745872 16.265407 0.424756 83.406658 0.512578 0.000000 0.000000 0.000000 5.184857 7.719810 -92.761483 2.784367 -3.758378 82.272423 0.000000 0.000000 0.000000 -3.530723 -10.876866 -90.805837 -2.722197 1.151615 85.757388 
-0.086637 0.204868 -1.633137 -3.568474 1.347378 -2.736026 0.000000 0.000000 0.000000 2.504462 0.609320 15.149858 0.497342 0.570287 2.404641 0.000000 0.000000 0.000000 0.821868 0.514083 1.679501 1.472986 -0.681987 7.462264 0.737213 0.464733 2.313511 -5.487823 -3.977231 -0.089853 -60.847682 -6.195829 7.629443 -0.598027 -67.248200 1.498847 0.673215 0.542283 2.729783 5.706253 -6.582619 0.419753 72.784276 14.885416 16.738557 0.325334 81.558122 0.420218 0.000000 0.000000 0.000000 5.186377 7.719436 -92.754608 2.798110 -3.757182 82.269953 0.000000 0.000000 0.000000 -3.524173 -10.877023 -90.799082 -2.723858 1.151298 85.761259 
-0.090735 0.209118 -1.677051 -3.557577 1.339383 -2.740236 0.000000 0.000000 0.000000 2.517096 0.612140 15.146688 0.502128 0.570501 2.413192 0.000000 0.000000 0.000000 0.830344 0.513447 1.693220 1.469181 -0.674853 7.408561 0.742726 0.463895 2.326014 -5.533522 -4.146466 -0.057250 -60.790211 -6.356922 7.454507 -0.572967 -66.567327 1.474116 0.683811 0.540627 2.758522 5.844437 -6.564458 0.419084 72.773241 15.008932 17.218523 0.269819 79.804186 0.373960 0.000000 0.000000 0.000000 5.187028 7.721368 -92.746642 2.813831 -3.755585 82.262726 0.000000 0.000000 0.000000 -3.519737 -10.873623 -90.800922 -2.728520 1.149715 85.769953 
-0.093661 0.213098 -1.720775 -3.548293 1.330388 -2.742002 0.000000 0.000000 0.000000 2.532024 0.615659 15.150194 0.514537 0.567732 2.424901 0.000000 0.000000 0.000000 0.839493 0.512910 1.707740 1.462546 -0.665966 7.352309 0.750917 0.466240 2.340705 -5.592114 -4.326470 -0.022693 -60.727325 -6.528719 7.251958 -0.547618 -65.832995 1.448333 0.695178 0.539600 2.787032 5.989498 -6.531420 0.420074 72.813017 15.112349 17.679195 0.234778 78.112433 0.354798 0.000000 0.000000 0.000000 5.189094 7.721284 -92.740595 2.829269 -3.753813 82.257279 0.000000 0.000000 0.000000 -3.512590 -10.874015 -90.800882 -2.730190 1.147754 85.771822 
-0.095374 0.216902 -1.764334 -3.541134 1.321778 -2.742167 0.000000 0.000000 0.000000 2.547504 0.619873 15.156855 0.526959 0.564690 2.436990 0.000000 0.000000 0.000000 0.848468 0.512811 1.722802 1.457303 -0.656901 7.289774 0.759020 0.469339 2.353254 -5.652847 -4.510516 0.014166 -60.661644 -6.691641 7.027899 -0.520890 -65.058428 1.421123 0.707144 0.539343 2.805462 6.135914 -6.487982 0.420679 72.875526 15.195662 18.199826 0.203487 76.176430 0.341269 0.000000 0.000000 0.000000 5.190904 7.720888 -92.733368 2.846103 -3.753150 82.251447 0.000000 0.000000 0.000000 -3.508218 -10.873003 -90.793728 -2.732920 1.145631 85.773106 
-0.095882 0.220564 -1.807670 -3.535481 1.315182 -2.743200 0.000000 0.000000 0.000000 2.563708 0.625733 15.163047 0.540348 0.561258 2.449144 0.000000 0.000000 0.000000 0.857513 0.512859 1.737827 1.451113 -0.646678 7.225708 0.767821 0.472303 2.367875 -5.722489 -4.706395 0.053137 -60.599791 -6.859077 6.802271 -0.494470 -64.210558 1.394083 0.719449 0.538746 2.821327 6.276321 -6.456160 0.419887 72.952655 15.273203 19.075309 0.174256 73.891071 0.333284 0.000000 0.000000 0.000000 5.191353 7.723612 -92.728362 2.864343 -3.752894 82.242066 0.000000 0.000000 0.000000 -3.503666 -10.873420 -90.788846 -2.734186 1.144615 85.775925 
-0.095240 0.223974 -1.850729 -3.530123 1.307433 -2.743626 0.000000 0.000000 0.000000 2.578555 0.633763 15.173429 0.553715 0.558310 2.460711 0.000000 0.000000 0.000000 0.866797 0.513082 1.753093 1.443375 -0.634351 7.161954 0.776534 0.475642 2.380805 -5.787050 -4.903253 0.093654 -60.537552 -7.034665 6.602295 -0.469586 -63.263776 1.369932 0.731477 0.538583 2.837258 6.430553 -6.444350 0.415032 73.044115 15.353208 20.085157 0.139873 71.350577 0.321813 0.000000 0.000000 0.000000 5.193659 7.726813 -92.719675 2.884197 -3.750915 82.232257 0.000000 0.000000 0.000000 -3.501652 -10.870523 -90.783019 -2.735335 1.143927 85.777927 
-0.093322 0.227193 -1.893591 -3.527122 1.301727 -2.743303 0.000000 0.000000 0.000000 2.591290 0.646562 15.185014 0.567252 0.555611 2.472889 0.000000 0.000000 0.000000 0.875574 0.513858 1.767199 1.435946 -0.621623 7.097063 0.784608 0.479648 2.392019 -5.859956 -5.105546 0.136544 -60.471429 -7.178690 6.390380 -0.446065 -62.313949 1.347045 0.743695 0.538368 2.852083 6.596061 -6.428500 0.409905 73.133044 15.425299 21.189768 0.088896 68.915329 0.264126 0.000000 0.000000 0.000000 5.191992 7.728700 -92.714384 2.903903 -3.748845 82.224066 0.000000 0.000000 0.000000 -3.496892 -10.867002 -90.780284 -2.738624 1.142649 85.778958 
-0.090216 0.230257 -1.936169 -3.524238 1.297556 -2.742804 0.000000 0.000000 0.000000 2.603389 0.658107 15.190358 0.580998 0.553114 2.484006 0.000000 0.000000 0.000000 0.884544 0.515631 1.781048 1.430424 -0.607357 7.027437 0.793779 0.484460 2.404512 -5.934483 -5.301326 0.178397 -60.414004 -7.334843 6.190013 -0.428978 -61.605000 1.329259 0.756077 0.538913 2.865557 6.763381 -6.393981 0.402990 73.223732 15.531632 22.319279 0.058185 66.543800 0.223649 0.000000 0.000000 0.000000 5.192252 7.730232 -92.707922 2.925283 -3.745142 82.217853 0.000000 0.000000 0.000000 -3.493163 -10.866232 -90.773971 -2.738653 1.141944 85.780620 
-0.085966 0.233192 -1.978475 -3.523557 1.294198 -2.743034 0.000000 0.000000 0.000000 2.616156 0.673844 15.192268 0.594763 0.551059 2.493728 0.000000 0.000000 0.000000 0.894039 0.518117 1.792872 1.424775 -0.590926 6.955779 0.803137 0.489867 2.415921 -6.014016 -5.491070 0.219520 -60.352265 -7.473835 6.000068 -0.413011 -60.887100 1.313467 0.769217 0.539691 2.878125 6.933406 -6.362335 0.396042 73.315373 15.675502 23.357066 0.036688 64.167078 0.191334 0.000000 0.000000 0.000000 5.190327 7.733918 -92.704377 2.951606 -3.740329 82.211075 0.000000 0.000000 0.000000 -3.491086 -10.863757 -90.770173 -2.740095 1.141865 85.784096 
-0.080643 0.235942 -2.020461 -3.523681 1.292022 -2.741289 0.000000 0.000000 0.000000 2.626425 0.686688 15.181944 0.607800 0.549893 2.500731 0.000000 0.000000 0.000000 0.903570 0.520994 1.802817 1.420412 -0.573473 6.883053 0.812674 0.495393 2.424073 -6.086420 -5.665197 0.258212 -60.284683 -7.606969 5.813028 -0.397354 -60.145671 1.297824 0.781560 0.541348 2.889761 7.087496 -6.326079 0.390857 73.405246 15.831751 24.304373 0.018924 61.817272 0.162335 0.000000 0.000000 0.000000 5.187991 7.739254 -92.703200 2.979248 -3.734229 82.203658 0.000000 0.000000 0.000000 -3.489081 -10.861815 -90.765181 -2.740707 1.140351 85.781621 
-0.074230 0.238705 -2.062221 -3.526935 1.292069 -2.737068 0.000000 0.000000 0.000000 2.635586 0.698430 15.167896 0.621973 0.547901 2.507380 0.000000 0.000000 0.000000 0.913243 0.524018 1.811152 1.414477 -0.554385 6.807847 0.821964 0.501194 2.432271 -6.159149 -5.834752 0.297135 -60.229961 -7.735751 5.635508 -0.380790 -59.404252 1.281015 0.794318 0.542921 2.900019 7.233326 -6.286148 0.386514 73.499164 16.002236 25.180396 0.005830 58.998358 0.134846 0.000000 0.000000 0.000000 5.186333 7.741137 -92.706160 3.012184 -3.724211 82.203016 0.000000 0.000000 0.000000 -3.487176 -10.860149 -90.762099 -2.742996 1.140450 85.782839 
-0.066674 0.241467 -2.103727 -3.528742 1.290681 -2.733642 0.000000 0.000000 0.000000 2.646949 0.708164 15.147695 0.635348 0.546419 2.510947 0.000000 0.000000 0.000000 0.923287 0.527427 1.818259 1.407846 -0.534150 6.731936 0.832299 0.506804 2.439547 -6.227126 -5.989824 0.332915 -60.161688 -7.870931 5.472619 -0.358931 -58.537096 1.258443 0.806148 0.544837 2.907459 7.368603 -6.235274 0.382579 73.607224 16.172055 25.995393 -0.002733 56.147654 0.112376 0.000000 0.000000 0.000000 5.183183 7.746124 -92.710115 3.051345 -3.713119 82.198882 0.000000 0.000000 0.000000 -3.486329 -10.858375 -90.757418 -2.746893 1.140186 85.781830 
